<?xml version="1.0" encoding="UTF-8" standalone="no"?>
<!-- Created with Inkscape (http://www.inkscape.org/) -->

<svg
   viewBox="0 0 75.641861 75.641875"
   version="1.1"
   id="svg1"
   xml:space="preserve"
   xmlns="http://www.w3.org/2000/svg"
   xmlns:svg="http://www.w3.org/2000/svg"><defs
     id="defs1" /><g
     id="layer1"
     transform="translate(-154.37785,-176.53588)"><g
       id="g14"><rect
         style="fill:#f5f0e8;fill-opacity:1;stroke-width:1.365;stroke-linecap:round;stroke-linejoin:round"
         id="rect8"
         width="75.641869"
         height="75.641869"
         x="154.37785"
         y="176.53587"
         ry="1.0702703" /><path
         id="path8"
         style="fill:#c4a882;fill-opacity:1"
         d="m 188.59975,185.69123 c -0.63756,-0.003 -0.96244,0.38658 -1.3627,1.34411 -0.2451,0.58634 -0.63177,0.90831 -1.3901,1.15858 -0.9989,0.32967 -2.15749,1.48688 -2.15749,2.15491 0,0.99052 -0.74549,2.49444 -1.66502,3.35793 -2.04125,1.91688 -2.25569,2.18079 -2.89904,3.57188 -0.983,2.12548 -0.22274,4.38947 2.34197,6.97477 1.85994,1.87486 2.61399,3.58409 1.18856,2.69389 -0.8672,-0.54157 -1.46404,-0.004 -1.55804,1.40405 -0.0649,0.97143 0.0371,1.2806 0.59531,1.80506 1.10418,1.03733 0.89386,1.82945 -0.80874,3.04942 -1.27338,0.91243 -1.63913,1.39151 -2.72851,3.57188 -1.26041,2.5227 -1.8992,4.18632 -2.41381,6.2885 -0.31414,1.28321 -0.70703,1.40398 -1.87172,0.57464 -1.07232,-0.76356 -1.40433,-1.53879 -2.05207,-4.79092 -0.8556,-4.29574 -1.71809,-6.37225 -3.31866,-7.98866 -1.95123,-1.97055 -5.44773,-3.53196 -5.44773,-2.43292 0,0.20734 -0.49929,0.85186 -1.10949,1.43247 -0.97515,0.92786 -1.0656,1.10861 -0.74621,1.49345 0.19986,0.24078 0.57118,0.38359 0.82475,0.31729 1.03974,-0.2719 2.92043,1.54988 3.43339,3.32589 0.13643,0.47236 0.31584,3.35918 0.39894,6.41512 0.0831,3.05593 0.27908,5.97296 0.43511,6.48229 0.96824,3.16063 3.21039,5.97849 5.24206,6.58719 l 1.0697,0.3204 -0.078,1.85621 -0.0775,1.85674 1.56631,0.64285 c 0.86146,0.35359 1.82012,0.64286 2.1301,0.64286 0.30998,0 0.6767,0.10708 0.81494,0.23771 0.13825,0.13062 1.14412,0.36256 2.23552,0.51573 1.09141,0.15317 3.29406,0.51643 4.89479,0.80667 3.14035,0.56941 7.35318,1.02125 11.77396,1.26297 1.5277,0.0835 2.82717,0.19656 2.8882,0.25167 h 5.1e-4 c 0.48152,0.43375 10.7731,-0.16099 16.029,-0.92656 2.60768,-0.37984 7.5621,-1.71928 8.26823,-2.23553 0.3881,-0.28371 0.42902,-1.36916 0.0925,-2.45256 -0.13105,-0.42189 -0.37893,-1.83896 -0.55087,-3.14864 -0.80358,-6.1212 -2.91786,-13.75931 -4.42299,-15.97784 -0.33464,-0.49325 -0.60874,-1.12903 -0.60874,-1.41283 0,-0.28379 -0.59532,-1.18404 -1.32292,-2.0004 -1.15232,-1.29287 -1.32292,-1.63098 -1.32292,-2.62206 0,-0.62579 0.10642,-1.13792 0.23616,-1.13792 0.29683,0 0.6688,-1.25387 0.6165,-2.07791 -0.0817,-1.2865 -1.22072,-1.84279 -1.61127,-0.78703 -0.12785,0.34559 -0.28321,0.45986 -0.39016,0.28681 -0.26895,-0.43516 0.24348,-1.55453 1.59577,-3.48454 1.53241,-2.18707 2.72773,-4.68151 2.728,-5.69371 3.5e-4,-1.30035 -1.02083,-2.98467 -2.73523,-4.51136 -1.22036,-1.08672 -1.86318,-1.9346 -2.55643,-3.37343 -0.84596,-1.75577 -1.0519,-1.98565 -2.38125,-2.65669 -1.22791,-0.61983 -1.47588,-0.86779 -1.5875,-1.5875 -0.12771,-0.82336 -0.17357,-0.85146 -1.32292,-0.80822 -0.65484,0.0246 -1.8913,0.12994 -2.74764,0.2341 -0.90532,0.1101 -2.28955,0.0627 -3.30729,-0.11318 -2.71833,-0.46979 -4.4995,-0.50207 -6.51278,-0.11885 -1.99327,0.37941 -3.24084,0.29652 -5.23482,-0.34778 -0.45532,-0.14713 -0.80988,-0.22965 -1.09968,-0.231 z m 9.494,1.72238 c 0.50073,0 0.98393,0.11906 1.07383,0.26458 0.0988,0.15979 -0.26195,0.26458 -0.91054,0.26458 -0.59067,0 -1.07383,-0.11906 -1.07383,-0.26458 0,-0.14552 0.4098,-0.26458 0.91054,-0.26458 z m -2.33216,0.13849 c 0.204,0.005 0.38673,0.0875 0.42943,0.25838 0.0364,0.14552 -0.21499,0.30432 -0.55862,0.35295 -0.42831,0.0606 -0.58765,-0.0226 -0.50695,-0.26458 0.0769,-0.23063 0.37385,-0.35302 0.63614,-0.34675 z m -9.40046,2.55953 c 0.41204,-0.0256 0.80956,0.15282 0.91932,0.59015 0.30475,1.21424 0.93937,1.53005 2.39314,1.19166 1.72234,-0.40091 2.9665,-0.37712 5.66167,0.108 2.30264,0.41447 4.7071,0.29329 6.87348,-0.34623 1.30747,-0.38597 3.1826,-0.33554 4.03386,0.10852 1.49632,0.78057 2.58228,0.44648 2.58228,-0.79478 0,-1.63305 1.6497,-0.6851 2.42517,1.39371 0.50947,1.36576 0.76701,1.68369 3.35328,4.1398 1.39244,1.32237 1.85107,2.4296 1.53273,3.69796 -0.0855,0.34055 -0.82734,1.62107 -1.649,2.84583 -2.64299,3.93959 -3.07998,5.26646 -2.46445,7.48326 0.15627,0.56265 0.21268,1.3068 0.12558,1.65365 -0.17248,0.68725 -0.40339,0.73171 -1.60352,0.30954 -1.21793,-0.42844 -1.45521,-0.71973 -1.45521,-1.78697 0,-1.11125 -0.44254,-1.63019 -1.91358,-2.24483 -0.58043,-0.24252 -1.2881,-0.86978 -1.76733,-1.56631 -0.89869,-1.30621 -2.11813,-2.15301 -4.25659,-2.95589 l -1.45521,-0.54674 0.0868,-1.33067 c 0.0769,-1.18142 0.0111,-1.38025 -0.58601,-1.77147 -1.01216,-0.66319 -2.14278,-0.56416 -2.77761,0.24288 -0.51221,0.65118 -0.5179,0.73286 -0.11266,1.74563 0.46923,1.17272 0.3445,1.39009 -0.97616,1.69912 -1.44352,0.33777 -2.56532,1.04953 -4.1889,2.65721 -0.93384,0.9247 -1.90532,1.68103 -2.15852,1.68103 -0.2532,0 -0.77412,0.24669 -1.15755,0.54829 -0.56094,0.44124 -0.69712,0.7721 -0.69712,1.69188 0,1.2171 -0.25409,1.464 -1.50533,1.464 h -0.66818 l 0.18655,-2.60604 c 0.17045,-2.38134 0.13557,-2.7064 -0.40359,-3.77032 -0.32451,-0.64036 -1.39531,-2.01482 -2.3797,-3.05459 -2.80389,-2.96164 -2.79679,-4.06738 0.0444,-6.85798 1.77384,-1.74208 2.87373,-3.51245 2.87373,-4.62556 0,-0.59072 0.5544,-0.9608 1.08417,-0.99374 z m 11.23859,10.79573 c 0.24643,0 0.38133,0.18023 0.33073,0.44131 -0.12873,0.66379 -0.74724,0.75488 -0.74724,0.11008 0,-0.325 0.17108,-0.55139 0.41651,-0.55139 z m -0.004,3.54655 c 0.2195,-0.0105 0.4021,0.0334 0.56069,0.12557 0.44955,0.26142 0.45021,0.28088 0.0171,0.28888 -0.4754,0.008 -1.44444,1.93293 -1.30276,2.58744 0.0394,0.18191 -0.17181,0.33072 -0.46923,0.33072 -0.29742,0 -0.54105,0.11907 -0.54105,0.26459 0,0.14552 0.1786,0.26458 0.39688,0.26458 0.55332,0 0.50696,1.1447 -0.0661,1.64486 -0.70016,0.61073 -1.56221,1.00404 -1.76217,0.80409 -0.098,-0.098 -0.73857,-0.24263 -1.42368,-0.32143 -1.06095,-0.12199 -1.2589,-0.23645 -1.3348,-0.77308 -0.14934,-1.05607 0.73484,-2.26265 2.57245,-3.5109 1.70047,-1.15512 2.69429,-1.67389 3.35277,-1.70532 z m 2.39572,0.64337 c 0.16112,-0.009 0.49797,0.0689 1.01079,0.23771 1.29628,0.42675 3.32486,2.01584 3.32486,2.6045 0,0.20695 0.10005,0.3762 0.22221,0.3762 0.19233,0 0.83612,1.13005 0.83612,1.46761 0,0.43388 -0.6845,-0.0919 -1.86448,-1.43247 -0.75158,-0.85384 -1.8896,-1.883 -2.52905,-2.2872 -0.97495,-0.61624 -1.30803,-0.9492 -1.00045,-0.96635 z m -35.19889,4.15479 h 5.2e-4 c 0.0969,-0.005 0.2522,0.0533 0.49816,0.16536 0.49456,0.22534 0.69235,0.57348 0.82372,1.44953 0.0951,0.63413 0.24847,1.1538 0.34107,1.15445 0.0926,6.6e-4 0.19034,0.42511 0.21704,0.94361 0.0267,0.5185 0.15753,1.08367 0.29093,1.25574 0.3197,0.41239 0.79329,3.02598 0.96739,5.33972 0.0767,1.01865 0.3746,2.5404 0.66197,3.38119 0.28741,0.84079 0.45907,1.69405 0.38137,1.89653 -0.0777,0.20249 0.059,0.6746 0.30438,1.04903 0.24529,0.37444 0.37687,0.86149 0.29197,1.08262 -0.0848,0.22113 -0.0209,0.69488 0.14211,1.05265 0.21895,0.48138 0.21757,0.74418 -0.003,1.01079 -0.22542,0.27164 -0.20389,0.48503 0.0858,0.86765 0.21119,0.2791 0.38723,0.58927 0.39223,0.68936 h 5.1e-4 c 0.0134,0.28906 -1.05488,0.13095 -1.32653,-0.19637 -0.38874,-0.4684 -1.2414,-5.73872 -1.54564,-9.55394 -0.33145,-4.1564 -0.88359,-6.76833 -1.9141,-9.05526 -0.4189,-0.92963 -0.76171,-1.90933 -0.76171,-2.17713 0,-0.2366 0.0278,-0.34845 0.15193,-0.35553 z m 23.55153,0.20722 c 0.005,-2.7e-4 0.01,-1.3e-4 0.015,0 0.12948,0.003 0.32664,0.13088 0.54984,0.39429 0.54319,0.64105 3.04161,1.63691 4.10724,1.63711 0.40018,7e-5 0.72761,0.11906 0.72761,0.26458 0,0.14557 -0.0297,0.25305 -0.0661,0.23875 -0.0364,-0.0143 -0.78052,-0.17263 -1.65365,-0.35192 -2.01342,-0.41344 -3.53313,-1.06612 -3.74034,-1.6061 -0.14123,-0.36807 -0.094,-0.56835 0.0605,-0.57671 z m 19.3549,0.262 h 5.1e-4 c 0.0501,-0.003 0.0672,0.0758 0.0672,0.23151 h 5.2e-4 c 0,0.22828 -0.1786,0.56298 -0.39688,0.74414 -0.50534,0.41905 -0.49885,0.026 0.008,-0.64595 0.16474,-0.21779 0.26352,-0.32575 0.3204,-0.3297 z m 5.48287,2.65152 c 0.005,-2.7e-4 0.0104,-2.1e-4 0.0155,0 0.0375,0.002 0.0801,0.0158 0.12557,0.0439 0.14552,0.0899 0.26459,0.21589 0.26459,0.28009 0,0.0642 -0.11907,0.11679 -0.26459,0.11679 -0.14552,0 -0.26458,-0.12598 -0.26458,-0.28009 0,-0.0993 0.0494,-0.15671 0.12351,-0.16071 z m -3.47059,0.97875 h 5.1e-4 c 0.79051,0.0117 1.37382,0.52155 1.59009,1.3901 0.16262,0.65305 0.0846,0.78029 -0.68368,1.11414 -0.8509,0.36974 -0.85392,0.37686 -0.16175,0.38706 0.38806,0.006 0.7558,-0.13849 0.817,-0.3204 0.16407,-0.48745 0.99116,0.25729 0.99116,0.89245 0,0.27322 0.15621,0.49661 0.34726,0.49661 0.63271,0 1.73026,1.43239 2.33113,3.04271 0.32579,0.87312 0.80562,1.8995 1.0666,2.28048 0.26099,0.38098 0.52966,1.13587 0.59686,1.67794 0.0672,0.54207 0.30455,1.12355 0.52762,1.29191 0.22943,0.17315 0.42423,0.76561 0.44803,1.36426 0.0231,0.58208 0.1629,1.53457 0.3111,2.11666 0.40794,1.60232 0.48674,2.20597 0.56844,4.36563 0.0413,1.09141 0.22922,2.30836 0.41754,2.70423 0.26654,0.56024 0.2723,0.80454 0.0258,1.10122 -0.23077,0.27811 -0.23652,0.43027 -0.0207,0.56379 0.19184,0.11856 0.23145,0.56962 0.11265,1.28054 -0.1802,1.07841 -0.54932,1.58601 -0.96583,1.3286 -0.28934,-0.17881 -0.26719,-1.15755 0.0258,-1.15755 0.45621,0 0.15557,-1.46138 -0.4346,-2.11357 -0.61209,-0.67641 -0.80231,-1.5906 -0.33124,-1.5906 0.14552,0 0.26458,-0.23069 0.26458,-0.51314 0,-0.28246 -0.11906,-0.58758 -0.26458,-0.67748 -0.14552,-0.0899 -0.26459,-0.56867 -0.26459,-1.06402 0,-0.49535 -0.22237,-1.4707 -0.49402,-2.16731 -0.27166,-0.69661 -0.57589,-1.82933 -0.67645,-2.51716 -0.10056,-0.68783 -0.28428,-1.31298 -0.40824,-1.38958 -0.124,-0.0766 -0.22369,-0.64496 -0.22169,-1.26297 0.004,-1.19488 -1.36746,-4.07856 -2.06706,-4.34702 -0.44693,-0.17152 -0.48833,-0.87798 -0.0517,-0.87798 0.17275,0 -0.0126,-0.3403 -0.41134,-0.75655 -0.39878,-0.41625 -0.76221,-1.10086 -0.80771,-1.52135 -0.0635,-0.58725 -0.21782,-0.76481 -0.66662,-0.76481 -0.32137,0 -0.72446,-0.1786 -0.89555,-0.39688 -0.1711,-0.21828 -0.60875,-0.53886 -0.97255,-0.71261 -0.70351,-0.336 -3.39291,-0.76957 -3.83646,-0.61857 -0.14552,0.0495 -0.91942,0.12213 -1.71979,0.16123 -1.71653,0.0838 -3.01682,0.51944 -2.76521,0.92656 0.0974,0.15754 0.46184,0.21494 0.80977,0.12764 0.35709,-0.0896 0.63252,-0.0411 0.63252,0.1111 0,0.14829 -0.32743,0.27085 -0.72761,0.27285 -0.40018,0.002 -1.00889,0.079 -1.35288,0.17105 -0.54686,0.14638 -0.60306,0.0961 -0.44546,-0.40049 0.13417,-0.42272 0.0698,-0.56792 -0.25218,-0.56792 -0.32213,0 -0.38662,0.14537 -0.25218,0.56896 0.16761,0.52809 0.11133,0.55754 -0.78961,0.41134 -0.72126,-0.11704 -1.00902,-0.0566 -1.12138,0.23616 -0.21595,0.56276 0.0963,0.76942 0.56947,0.37672 0.45717,-0.37943 0.55626,-2.3e-4 0.11524,0.4408 -0.42659,0.42654 0.21433,0.73779 0.69608,0.33797 0.30749,-0.25522 0.38551,-0.24153 0.38551,0.0677 0,0.22272 -0.44987,0.52205 -1.05833,0.70435 -1.15032,0.34464 -1.37623,0.79156 -0.51419,1.01699 0.34861,0.0912 0.48953,0.28398 0.39223,0.53744 -0.0835,0.2176 -0.0118,0.56449 0.15916,0.77049 0.22867,0.27551 0.23259,0.45269 0.0155,0.66973 -0.35059,0.3506 -1.11105,-0.16052 -1.11105,-0.74672 0,-0.21239 -0.27601,-0.36484 -0.66146,-0.36484 -0.63431,0 -0.80367,0.31276 -0.68109,1.25677 0.0236,0.1819 -0.14121,0.33073 -0.36587,0.33073 -0.22466,0 -0.40824,-0.17859 -0.40824,-0.39687 0,-0.21829 -0.10256,-0.39688 -0.2279,-0.39688 -0.12535,0 -0.17088,0.29766 -0.10128,0.66146 0.0696,0.3638 0.28373,0.66146 0.47645,0.66146 0.54538,0 0.67547,0.41885 0.37517,1.20871 -0.2294,0.60337 -0.18369,0.82072 0.27596,1.31 l 0.55138,0.58704 -1.17408,0.29559 c -1.05048,0.26452 -1.1918,0.39239 -1.34669,1.21801 -0.0952,0.50745 -0.36582,1.03081 -0.60152,1.16272 -0.37596,0.2104 -0.35672,0.27796 0.1571,0.55294 l 0.58549,0.31368 -0.67592,0.53123 c -0.44958,0.35363 -0.67541,0.79047 -0.67541,1.30586 0,0.51209 -0.13448,0.77463 -0.39688,0.77463 -0.50931,0 -0.50728,0.37226 0.003,0.79634 0.29273,0.24295 0.36769,0.68396 0.28009,1.64848 -0.10199,1.12223 -0.0465,1.33655 0.37568,1.44694 0.79582,0.20812 0.87009,0.8561 0.13023,1.13739 -0.36102,0.13726 -0.67492,0.40155 -0.69712,0.58705 -0.0222,0.1855 -0.0547,0.51552 -0.0723,0.7338 -0.0217,0.26913 -0.29591,0.38574 -0.85266,0.36174 -0.68161,-0.0294 -0.79916,0.0491 -0.69092,0.46302 0.0717,0.27415 0.23577,0.49816 0.36432,0.49816 0.12855,0 0.23358,0.11906 0.23358,0.26458 0,0.5572 -0.81916,0.232 -1.06867,-0.42426 -0.23088,-0.60729 -0.37932,-0.6751 -1.25057,-0.57206 -0.54357,0.0643 -1.19641,0.20851 -1.45107,0.3204 -0.33327,0.14641 -0.46302,0.0843 -0.46302,-0.2217 0,-0.23385 -0.11907,-0.42529 -0.26459,-0.42529 -0.14552,0 -0.26458,0.17858 -0.26458,0.39687 0,0.52522 -0.4295,0.50887 -0.63407,-0.0243 -0.12793,-0.33373 -0.47893,-0.40232 -1.68207,-0.33072 -1.31665,0.0784 -1.51543,0.0284 -1.48363,-0.37259 0.0202,-0.25466 -0.0691,-0.46302 -0.19844,-0.46302 -0.12935,0 -0.23512,0.11906 -0.23512,0.26458 0,0.41905 -0.60317,0.29841 -1.32292,-0.26458 -0.3638,-0.28457 -0.94409,-0.51997 -1.28933,-0.52297 -0.48528,-0.005 -0.56261,-0.0841 -0.34158,-0.35036 0.15725,-0.18948 0.21527,-0.63596 0.12867,-0.99219 l -0.15761,-0.64802 0.63149,0.65629 c 0.3473,0.36099 0.60077,0.75095 0.56327,0.86609 -0.0824,0.2533 1.27235,0.80142 1.4764,0.59738 0.0793,-0.0793 0.003,-0.28513 -0.16899,-0.45733 -0.3894,-0.38941 -0.40688,-1.3306 -0.0315,-1.70584 0.1815,-0.18152 0.20044,-0.59247 0.0543,-1.15755 -0.17326,-0.66861 -0.44387,-0.95465 -1.14153,-1.20665 -0.93115,-0.33637 -0.85865,-0.46745 0.21032,-0.38085 0.32742,0.0265 0.59532,-0.0611 0.59532,-0.19482 0,-0.1337 -0.2679,-0.3756 -0.59532,-0.53744 -0.49367,-0.244 -0.392,-0.26688 0.59532,-0.13487 l 1.19062,0.15916 -0.7276,-0.68626 c -0.9497,-0.896 -0.92781,-1.55266 0.0661,-1.99265 0.43656,-0.19324 0.79375,-0.463 0.79375,-0.59996 0,-0.13696 -0.35719,-0.32043 -0.79375,-0.40773 -0.6228,-0.12456 -0.79375,-0.29848 -0.79375,-0.80718 0,-0.57274 0.10029,-0.63824 0.8599,-0.56224 0.73542,0.0736 0.87279,-0.006 0.94929,-0.54726 0.0817,-0.57811 0.0186,-0.61845 -0.7276,-0.46922 -0.60348,0.1207 -0.817,0.0658 -0.817,-0.20929 0,-0.20484 0.23812,-0.44813 0.52916,-0.54053 0.29104,-0.0924 0.52917,-0.30971 0.52917,-0.48318 0,-0.17347 -0.23813,-0.4642 -0.52917,-0.64595 -0.63485,-0.39648 -0.70038,-0.90943 -0.10232,-0.80047 0.33707,0.0614 0.45059,-0.2143 0.54209,-1.31155 0.0849,-1.01777 0.0242,-1.3933 -0.22789,-1.4056 -0.18925,-0.009 -0.0465,-0.13589 0.31729,-0.28164 0.60799,-0.24357 0.62285,-0.28705 0.18242,-0.53485 -0.35894,-0.20192 -0.43801,-0.45693 -0.31523,-1.01596 0.16145,-0.73503 -0.2086,-1.31432 -0.51883,-0.81235 -0.18711,0.30274 -0.93586,0.0716 -0.93586,-0.28887 0,-0.13633 0.19606,-0.21282 0.43563,-0.17002 0.23956,0.0428 0.48727,-0.0713 0.55087,-0.25321 0.0636,-0.1819 -0.0134,-0.33073 -0.17105,-0.33073 -0.15764,0 -0.28628,-0.17859 -0.28628,-0.39687 0,-0.21828 -0.1786,-0.39688 -0.39688,-0.39688 -0.54969,0 -0.49592,-0.43012 0.13229,-1.05833 0.29104,-0.29104 0.64823,-0.52917 0.79375,-0.52917 0.14552,0 0.26459,-0.16456 0.26459,-0.36587 0,-0.41233 0.80248,-0.68706 1.98437,-0.68006 0.72803,0.004 0.75407,0.0344 0.31626,0.36639 -0.44503,0.33745 -0.41908,0.39107 0.37982,0.78961 0.93711,0.46749 1.67735,0.17357 1.07642,-0.42736 -0.48917,-0.48917 -0.37978,-0.74104 0.32195,-0.74104 0.35168,0 0.68082,-0.1233 0.73122,-0.2744 0.21677,-0.65031 3.72545,-0.55443 7.36079,0.20102 3.09466,0.64311 3.56089,0.80626 3.48919,1.22318 -0.0682,0.39737 0.0712,0.46826 0.79737,0.40566 0.48416,-0.0417 1.02968,0.0163 1.21233,0.12919 0.18265,0.11289 0.71691,0.0867 1.18701,-0.0579 0.47009,-0.14462 1.65683,-0.34075 2.63756,-0.43615 0.98074,-0.0954 1.85115,-0.28365 1.93425,-0.41806 0.25261,-0.40872 3.31005,-1.83111 3.91656,-1.82211 z m -6.42648,3.4308 c 0.15408,0 0.20617,0.11906 0.11627,0.26458 -0.0899,0.14552 -0.21589,0.26458 -0.28009,0.26458 -0.0642,0 -0.11679,-0.11906 -0.11679,-0.26458 0,-0.14552 0.1265,-0.26458 0.28061,-0.26458 z m -5.96915,6.87916 c 0.22044,7e-5 0.39688,0.23525 0.39688,0.52917 0,0.61675 -0.049,0.63885 -0.47594,0.21187 -0.43208,-0.43206 -0.39944,-0.74095 0.0791,-0.74104 z m 0,1.32292 c 0.21828,0 0.39688,0.11906 0.39688,0.26458 0,0.14552 -0.1786,0.26459 -0.39688,0.26459 -0.21828,0 -0.39687,-0.11907 -0.39687,-0.26459 0,-0.14552 0.17859,-0.26458 0.39687,-0.26458 z m -16.68425,0.26458 c 0.55976,0 0.74172,0.4482 0.25735,0.63407 -0.5897,0.22629 -0.63872,0.20792 -0.63872,-0.23719 0,-0.21828 0.17168,-0.39688 0.38137,-0.39688 z m -6.3469,0.0372 c 0.17146,0.002 0.35552,0.025 0.54208,0.0718 0.51987,0.13048 0.66095,0.33403 0.66095,0.95447 0,0.58495 -0.12359,0.78858 -0.47905,0.78858 -0.51966,0 -1.63762,-0.91576 -1.63762,-1.34152 0,-0.29532 0.39925,-0.47899 0.91364,-0.47336 z m 23.08179,1.28985 c 0.17331,-0.002 0.38863,0.11492 0.47853,0.26044 0.20301,0.32849 0.11142,0.32849 -0.39688,0 -0.2385,-0.1541 -0.27119,-0.25844 -0.0816,-0.26044 z m -0.28835,0.78961 h 5.2e-4 c 0.0786,0 0.32122,0.17859 0.5395,0.39688 0.3438,0.34417 0.34664,0.39687 0.009,0.39687 -0.21311,0 -0.45622,-0.17859 -0.54002,-0.39687 -0.0834,-0.21829 -0.0887,-0.39688 -0.009,-0.39688 z m -16.83722,0.0305 c 0.0887,0.002 0.19515,0.0499 0.30128,0.15606 0.19005,0.19002 0.19487,0.33791 0.0139,0.44959 -0.14814,0.0916 -0.34908,0.0377 -0.44648,-0.11989 -0.17284,-0.27966 -0.0639,-0.49126 0.13125,-0.48576 z m -0.34313,1.67432 c 0.0483,-0.002 0.11841,0.0126 0.20671,0.0465 0.22584,0.0867 0.41031,0.20428 0.41031,0.26148 0,0.21429 -0.50401,0.0938 -0.65939,-0.15762 -0.0579,-0.0937 -0.0381,-0.14626 0.0424,-0.15037 z m 14.9779,0.73277 h 5.2e-4 c 0.002,-1.2e-4 0.003,-6e-5 0.005,0 0.0397,0.001 0.099,0.0729 0.18656,0.20825 0.14107,0.21828 0.25844,0.48618 0.26044,0.59532 0.002,0.10914 -0.11492,0.19843 -0.26044,0.19843 -0.14552,0 -0.26245,-0.26789 -0.26045,-0.59531 0.002,-0.26782 0.0184,-0.39881 0.0682,-0.40669 z m 2.29237,1.26659 c 0.29963,0 0.54467,0.0472 0.54467,0.10438 0,0.25099 -0.79209,0.37727 -0.93328,0.14883 -0.086,-0.13917 0.089,-0.25321 0.38861,-0.25321 z m -27.50685,0.24908 c 0.0502,0.002 0.10704,0.0285 0.16588,0.0873 0.0879,0.0879 0.10921,0.3102 0.0481,0.49403 -0.0896,0.26893 -0.15164,0.26844 -0.31833,-0.001 -0.1724,-0.27894 -0.0749,-0.5871 0.10439,-0.58032 z m 9.9937,0.5488 c 0.32742,-0.002 0.59532,0.11493 0.59532,0.26045 0,0.3315 -0.28078,0.3315 -0.79375,0 -0.32092,-0.20743 -0.28296,-0.25745 0.19843,-0.26045 z m 13.66015,0.061 c 0.17041,-0.007 0.51763,0.39836 0.71727,0.92346 0.14065,0.36984 0.19889,0.72973 0.12919,0.79943 -0.0697,0.0697 -0.20516,-0.18487 -0.30076,-0.56585 -0.0956,-0.38097 -0.28005,-0.69299 -0.40979,-0.69299 -0.12975,0 -0.23616,-0.12597 -0.23616,-0.28008 0,-0.12461 0.0386,-0.18132 0.10025,-0.18397 z m 3.09025,0.46405 c 0.15408,0 0.20669,0.11907 0.11679,0.26459 -0.0899,0.14552 -0.21589,0.26458 -0.28009,0.26458 -0.0642,0 -0.11678,-0.11906 -0.11678,-0.26458 0,-0.14552 0.12597,-0.26459 0.28008,-0.26459 z m -14.17071,1.05834 c -0.23548,0 -0.35448,0.11906 -0.26458,0.26458 0.0899,0.14552 0.20898,0.26458 0.26458,0.26458 0.0556,0 0.17468,-0.11906 0.26458,-0.26458 0.0899,-0.14552 -0.0291,-0.26458 -0.26458,-0.26458 z m 11.4794,0.77359 c 0.0236,-8.2e-4 0.0478,-7.3e-4 0.0718,5.2e-4 0.23109,0.012 0.48217,0.12042 0.69919,0.33745 0.48596,0.48595 0.37799,0.79545 -0.21188,0.60823 -0.30356,-0.0964 -0.52916,-0.0473 -0.52916,0.11472 0,0.15533 -0.16608,0.28215 -0.36897,0.28215 -0.22724,0 -0.35423,-0.25358 -0.33073,-0.66094 0.0246,-0.42599 0.316,-0.6698 0.66972,-0.68213 z m 2.87735,1.09038 h 5.1e-4 c 5.1e-4,3e-5 10e-4,-1e-5 0.002,0 6.8e-4,6e-5 0.003,3.4e-4 0.004,5.1e-4 h 5.2e-4 c 0.0322,0.0164 0.0568,0.20682 0.0568,0.47284 0,0.35241 -0.16503,0.57309 -0.42892,0.57309 -0.36748,0 -0.37849,-0.0667 -0.0749,-0.46302 0.19492,-0.25466 0.38771,-0.51249 0.42891,-0.57309 0.004,-0.005 0.007,-0.008 0.0109,-0.01 z m -2.06913,1.04644 c 0.15411,0 0.28009,0.11907 0.28009,0.26459 0,0.14552 -0.0526,0.26458 -0.11679,0.26458 -0.0642,0 -0.19019,-0.11906 -0.28009,-0.26458 -0.0899,-0.14552 -0.0373,-0.26459 0.11679,-0.26459 z m 2.19728,0.52917 c 0.14757,4e-5 0.11856,0.17549 -0.0651,0.39688 -0.18116,0.21828 -0.44824,0.39687 -0.59376,0.39687 -0.14758,0 -0.11915,-0.17549 0.0646,-0.39687 0.18111,-0.21829 0.44875,-0.39684 0.59427,-0.39688 z m -1.32601,0.99374 c 0.009,1e-4 0.0181,0.002 0.0269,0.006 0.0937,0.0404 0.34946,0.14234 0.56844,0.22634 0.21894,0.084 0.33216,0.25936 0.25166,0.38964 -0.27452,0.44418 -1.13045,0.2612 -1.05885,-0.22634 0.0339,-0.23078 0.12532,-0.39636 0.21188,-0.39532 z m 0.26355,1.42213 c 0.12099,-0.003 0.23268,7.2e-4 0.32763,0.0124 0.68626,0.085 0.68725,0.0876 0.1235,0.43563 -0.31196,0.19261 -0.48797,0.22133 -0.39067,0.0641 0.11847,-0.19171 -0.0469,-0.18409 -0.50126,0.0233 -0.67433,0.30725 -0.91951,0.75293 -0.41393,0.75293 0.14552,0 0.26458,-0.12598 0.26458,-0.28009 0,-0.1541 0.13448,-0.19708 0.29869,-0.0956 0.20787,0.12848 0.17905,0.25127 -0.0951,0.40463 -0.74606,0.41752 -1.95468,0.14069 -2.26653,-0.51935 -0.26392,-0.55858 -0.23921,-0.6087 0.24081,-0.48318 0.29448,0.077 0.87606,0.0211 1.29243,-0.12402 0.31228,-0.10889 0.75687,-0.18115 1.11983,-0.19069 z m -25.69508,0.8413 c 0.21059,0.19293 0.455,0.34048 0.68678,0.50643 0.0446,0.0331 0.0884,0.0669 0.13126,0.1018 -0.005,-0.012 -0.0107,-0.0238 -0.016,-0.0357 -0.27512,-0.20933 -0.54388,-0.40174 -0.80202,-0.57257 z m 22.63635,0.50591 c 0.0519,5.8e-4 0.082,0.0933 0.0832,0.27182 0.003,0.31107 -0.19123,0.45635 -0.59118,0.44235 -0.39779,-0.014 -0.46363,-0.0711 -0.19844,-0.17209 0.21828,-0.0831 0.48427,-0.28175 0.59118,-0.44183 0.045,-0.0673 0.0841,-0.1006 0.11524,-0.10025 z m -3.66748,0.24081 c 0.70044,-0.0214 1.07715,0.0669 0.97669,0.22944 -0.0899,0.14556 -0.18614,0.24916 -0.21394,0.22996 -0.0278,-0.0192 -0.46737,-0.12275 -0.97669,-0.22996 l -0.92604,-0.19482 z" /></g></g></svg>
